<?xml version="1.0" standalone="no"?>
<!DOCTYPE svg PUBLIC "-//W3C//DTD SVG 20010904//EN"
 "http://www.w3.org/TR/2001/REC-SVG-20010904/DTD/svg10.dtd">
<svg version="1.0" xmlns="http://www.w3.org/2000/svg"
 width="1920.000000pt" height="1920.000000pt" viewBox="0 0 1920.000000 1920.000000"
 preserveAspectRatio="xMidYMid meet">

<g transform="translate(0.000000,1920.000000) scale(0.100000,-0.100000)"
fill="#000000" stroke="none">
<path d="M6685 14429 c-391 -49 -791 -220 -1095 -466 -91 -74 -260 -244 -331
-333 -248 -309 -404 -683 -461 -1100 -19 -140 -19 -5721 0 -5860 57 -419 210
-783 462 -1100 88 -110 283 -300 388 -378 316 -234 669 -375 1052 -422 117
-14 5683 -14 5800 0 486 59 927 273 1275 617 345 341 558 778 627 1283 19 140
19 5720 0 5860 -57 423 -214 793 -469 1110 -351 436 -869 722 -1433 790 -106
13 -5713 12 -5815 -1z m6258 -983 c159 -77 226 -273 148 -431 -35 -70 -86
-120 -160 -157 -64 -32 -195 -32 -263 -1 -163 75 -237 269 -164 428 60 132
169 198 313 191 52 -2 86 -10 126 -30z m-1288 -653 c191 -44 373 -123 525
-226 97 -66 301 -270 367 -367 107 -158 192 -358 230 -547 17 -83 18 -206 18
-2053 0 -1888 -1 -1969 -19 -2055 -34 -163 -114 -364 -194 -489 -180 -281
-460 -501 -768 -601 -229 -75 -55 -70 -2214 -70 -2159 0 -1985 -5 -2214 70
-308 100 -588 320 -768 601 -80 125 -160 326 -194 489 -18 86 -19 167 -19
2055 0 1847 1 1970 18 2053 39 190 123 391 231 547 69 100 221 258 326 336
132 100 300 184 458 229 193 55 109 53 2197 51 1923 -2 1930 -2 2020 -23z"/>
<path d="M7995 12209 c-153 -22 -356 -101 -486 -190 -103 -69 -244 -213 -315
-320 -117 -176 -176 -350 -195 -574 -7 -87 -9 -624 -7 -1620 4 -1477 4 -1491
25 -1583 30 -128 49 -183 98 -283 139 -283 385 -499 681 -598 187 -63 129 -61
1801 -61 1028 0 1547 3 1599 11 173 24 399 115 529 213 238 181 390 416 461
716 17 70 18 178 22 1605 2 1038 0 1564 -7 1635 -56 543 -469 975 -1005 1049
-95 13 -3110 13 -3201 0z m1905 -1049 c648 -132 1141 -630 1266 -1280 28 -144
25 -438 -5 -580 -94 -441 -333 -793 -704 -1034 -397 -260 -912 -324 -1363
-171 -259 88 -511 257 -688 460 -551 634 -519 1576 73 2165 64 63 155 143 204
177 209 147 476 251 729 283 119 15 368 5 488 -20z"/>
<path d="M9424 10636 c-416 -79 -733 -371 -841 -772 -24 -88 -27 -117 -27
-264 0 -147 3 -176 27 -264 99 -369 385 -654 756 -754 85 -23 115 -26 261 -26
146 0 176 3 261 26 371 100 657 385 756 754 24 88 27 117 27 264 0 146 -3 176
-27 262 -99 371 -388 659 -756 755 -119 31 -327 40 -437 19z"/>
</g>
</svg>
